HIERARCHY
ROOT Hips
{
	OFFSET 0.000000 0.000000 0.000000 
	CHANNELS 6 Xposition Yposition Zposition Yrotation Zrotation Xrotation 
	JOINT Lumbar
	{
		OFFSET 0.000000 0.000000 0.000000 
		CHANNELS 3 Zrotation Xrotation Yrotation
		JOINT Neck
		{
			OFFSET 0.000000 0.445665 0.000000 
			CHANNELS 3 Zrotation Xrotation Yrotation
			End Site
			{
				OFFSET 0.000000 0.227535 0.000000 
			}
		}
		JOINT RightShoulder
		{
			OFFSET 0.019635 0.377685 0.194865 
			CHANNELS 3 Zrotation Xrotation Yrotation
			JOINT RightElbow
			{
				OFFSET 0.000000 -0.243375 0.000000 
				CHANNELS 2 Zrotation Yrotation
				JOINT RightWrist
				{
					OFFSET 0.000000 -0.264825 0.000000 
					CHANNELS 2 Zrotation Xrotation
					End Site
					{
						OFFSET 0.006600 -0.176220 0.000990 
					}
				}
			}
		}
		JOINT LeftShoulder
		{
			OFFSET 0.019635 0.377685 -0.194865 
			CHANNELS 3 Zrotation Xrotation Yrotation
			JOINT LeftElbow
			{
				OFFSET 0.000000 -0.243375 0.000000 
				CHANNELS 2 Zrotation Yrotation
				JOINT LeftWrist
				{
					OFFSET 0.000000 -0.264825 0.000000 
					CHANNELS 2 Zrotation Xrotation
					End Site
					{
						OFFSET 0.006600 -0.176220 -0.000990 
					}
				}
			}
		}
	}
	JOINT RightHip
	{
		OFFSET 0.052140 -0.069960 0.075570 
		CHANNELS 3 Zrotation Xrotation Yrotation
		JOINT RightKnee
		{
			OFFSET 0.000000 -0.402270 0.000000 
			CHANNELS 1 Zrotation
			JOINT RightAnkle
			{
				OFFSET 0.000000 -0.404085 0.000000 
				CHANNELS 3 Zrotation Xrotation Yrotation
				End Site
				{
					OFFSET 0.204105 -0.089430 0.008415 
				}
			}
		}
	}
	JOINT LeftHip
	{
		OFFSET 0.052140 -0.069960 -0.075570 
		CHANNELS 3 Zrotation Xrotation Yrotation
		JOINT LeftKnee
		{
			OFFSET 0.000000 -0.402270 0.000000 
			CHANNELS 1 Zrotation
			JOINT LeftAnkle
			{
				OFFSET 0.000000 -0.404085 0.000000 
				CHANNELS 3 Zrotation Xrotation Yrotation
				End Site
				{
					OFFSET 0.204105 -0.089430 -0.008415 
				}
			}
		}
	}
}
MOTION
Frames: 19
Frame Time: 0.02
-0.00226 -7e-05 -0.00028 -177.27757 -29.82019 1.23947 46.01301 -2.20164 -9.2099 -15.31806 8.86624 -1.13415 -21.46842 -5.06898 -4.97391 30.51732 96.77087 8.94081 1.83459 -23.27047 3.57865 11.17495 32.10788 -143.7379 28.1671 -9.19953 26.7516 -2.49106 -4.99987 -20.08092 -6.07401 -3.0962 -3.73234 30.44772 4.94656 4.01421 -24.30472 -6.20095 2.18547 3.23382
-0.00195 -3e-05 0.00011 -177.23973 -29.89429 1.24907 45.96144 -2.17937 -9.22799 -15.20421 8.86127 -1.13532 -21.41026 -5.09588 -4.8925 30.45255 96.73715 8.93451 1.83139 -23.19998 3.79644 10.43246 32.14743 -142.31577 27.82127 -8.85439 26.83246 -2.59654 -5.4507 -20.07814 -6.06199 -3.06353 -3.71139 30.54194 4.98057 4.29589 -24.30913 -6.20435 2.14218 3.21764
-0.00164 2e-05 0.00051 -177.20196 -29.96828 1.25868 45.90995 -2.1571 -9.24601 -15.09049 8.85611 -1.13649 -21.35232 -5.12273 -4.81127 30.38809 96.70336 8.92816 1.82819 -23.12973 4.01388 9.69117 32.18692 -140.89209 27.47434 -8.50939 26.91321 -2.70178 -5.90029 -20.07538 -6.05 -3.03094 -3.69049 30.63602 5.01452 4.57707 -24.31351 -6.20774 2.09898 3.20148
-0.00133 6e-05 0.00091 -177.16424 -30.04217 1.26826 45.85852 -2.13489 -9.26404 -14.97696 8.85113 -1.13766 -21.29434 -5.14955 -4.7301 30.32355 96.66971 8.92187 1.82499 -23.05946 4.23106 8.95077 32.22636 -139.4732 27.12917 -8.16514 26.99384 -2.80695 -6.34976 -20.07261 -6.03802 -2.99836 -3.66961 30.72998 5.04844 4.85794 -24.3179 -6.21113 2.05581 3.18534
-0.00102 0.00011 0.0013 -177.12645 -30.11613 1.27781 45.80702 -2.1127 -9.28217 -14.86336 8.84637 -1.13883 -21.23612 -5.1764 -4.6488 30.25865 96.63621 8.91565 1.8218 -22.98896 4.44845 8.20965 32.26583 -138.05858 26.78607 -7.82116 27.07452 -2.91234 -6.80042 -20.06984 -6.02601 -2.96573 -3.64867 30.82402 5.0824 5.13916 -24.32231 -6.21451 2.01259 3.16918
-0.00071 0.00016 0.0017 -177.0887 -30.1902 1.28755 45.75554 -2.09029 -9.29995 -14.74936 8.84039 -1.14 -21.1788 -5.20325 -4.56771 30.19512 96.6018 8.90905 1.81859 -22.91924 4.66597 7.46809 32.30537 -136.61626 26.43122 -7.4741 27.15544 -3.01724 -7.24771 -20.06707 -6.01409 -2.93322 -3.62787 30.91818 5.11632 5.42025 -24.32666 -6.21793 1.96942 3.15301
-0.0004 0.0002 0.0021 -177.05096 -30.26395 1.29688 45.70411 -2.06835 -9.31842 -14.63638 8.83694 -1.14117 -21.11972 -5.23006 -4.48624 30.12891 96.56925 8.90322 1.81541 -22.84802 4.88304 6.72806 32.34473 -135.22993 26.09995 -7.13341 27.23577 -3.12301 -7.70132 -20.06431 -6.00199 -2.90049 -3.6068 31.01198 5.15031 5.70129 -24.33111 -6.22126 1.92621 3.13688
-9e-05 0.00025 0.00249 -177.01311 -30.33801 1.30662 45.6526 -2.04595 -9.33624 -14.52232 8.83101 -1.14234 -21.06229 -5.25692 -4.4052 30.06518 96.53502 8.89669 1.8122 -22.77817 5.10043 5.98694 32.38426 -133.7944 25.74778 -6.78723 27.31667 -3.22798 -8.14902 -20.06154 -5.99006 -2.86798 -3.586 31.10616 5.18421 5.98236 -24.33547 -6.22468 1.88302 3.12072
0.00022 0.00029 0.00288 -176.97552 -30.41245 1.31678 45.60107 -2.02309 -9.35331 -14.40741 8.82258 -1.14351 -21.00672 -5.28381 -4.32435 30.00442 96.49853 8.88924 1.80898 -22.71004 5.31874 5.2427 32.424 -132.28744 25.36619 -6.43251 27.39822 -3.33204 -8.59002 -20.05874 -5.97831 -2.83563 -3.56546 31.20069 5.2181 6.26372 -24.33974 -6.22821 1.83987 3.10451
0.00053 0.00034 0.00329 -176.93763 -30.4847 1.32425 45.54988 -2.00316 -9.37481 -14.29878 8.83014 -1.14467 -20.93999 -5.31046 -4.24138 29.92642 96.47442 8.88687 1.80591 -22.63216 5.53334 4.511 32.46253 -131.15733 25.14215 -6.1214 27.4759 -3.44152 -9.07117 -20.05607 -5.96544 -2.80207 -3.54323 31.29287 5.25233 6.54421 -24.3446 -6.23108 1.79652 3.08853
0.00085 0.00039 0.00367 -176.8996 -30.56157 1.33758 45.49786 -1.97686 -9.38689 -14.17604 8.80296 -1.14586 -20.89711 -5.33765 -4.16357 29.88489 96.4246 8.87392 1.80244 -22.57476 5.75472 3.75647 32.50359 -129.25472 24.59345 -5.72194 27.56179 -3.53943 -9.46655 -20.05314 -5.95499 -2.77126 -3.52466 31.39017 5.28567 6.82595 -24.34816 -6.2354 1.75359 3.07208
0.0012 0.00047 0.00396 -176.86728 -30.65103 1.36548 45.44466 -1.93466 -9.37326 -14.02134 8.68792 -1.14708 -20.91768 -5.36627 -4.09398 29.94359 96.29997 8.83072 1.79869 -22.57532 6.00445 2.9073 32.55374 -125.02228 23.0804 -5.04686 27.67014 -3.60629 -9.63339 -20.04953 -5.95068 -2.74627 -3.51556 31.50021 5.31807 7.11544 -24.34848 -6.24327 1.71192 3.05429
0.00156 0.00055 0.00422 -176.83354 -30.74506 1.39951 45.39058 -1.88579 -9.34997 -13.85147 8.53673 -1.14833 -20.96254 -5.39562 -4.03042 30.03884 96.15018 8.77715 1.79441 -22.59652 6.25976 2.04044 32.60721 -120.05235 21.25481 -4.28905 27.78666 -3.66135 -9.71295 -20.04566 -5.94889 -2.72436 -3.51026 31.61558 5.34927 7.40487 -24.34744 -6.25268 1.67072 3.03604
0.00192 0.00064 0.00449 -176.79666 -30.83715 1.4317 45.33598 -1.83888 -9.33121 -13.68377 8.39703 -1.1496 -20.99764 -5.42445 -3.96831 30.11736 96.01482 8.72908 1.78981 -22.60656 6.50539 1.2034 32.65627 -115.55782 19.62033 -3.59093 27.89964 -3.72141 -9.82791 -20.04188 -5.94627 -2.70216 -3.50363 31.72942 5.38014 7.69218 -24.34681 -6.26172 1.62919 3.018
0.00226 0.00072 0.00477 -176.77636 -30.92899 1.45995 45.2846 -1.79634 -9.31256 -13.53488 8.27761 -1.15076 -21.02754 -5.45334 -3.88956 30.19671 95.86728 8.67756 1.78752 -22.62242 6.77881 0.27715 32.71277 -110.47241 17.77852 -2.79997 28.01233 -3.78315 -9.96036 -20.03818 -5.94233 -2.6753 -3.49535 31.8397 5.41494 7.99067 -24.34703 -6.26944 1.58794 2.99988
0.00264 0.00081 0.00502 -176.72045 -31.02202 1.4978 45.22713 -1.74329 -9.29051 -13.34458 8.10802 -1.15214 -21.07384 -5.4832 -3.84558 30.2827 95.73853 8.63092 1.78036 -22.63325 6.99864 -0.47095 32.76061 -106.43957 16.29385 -2.18203 28.12702 -3.83837 -10.0361 -20.03431 -5.94172 -2.65887 -3.4914 31.9584 5.44095 8.26322 -24.34519 -6.28017 1.54649 2.98192
0.00315 0.00093 0.0052 -176.57318 -31.1204 1.56102 45.14588 -1.66131 -9.26833 -13.0327 7.80397 -1.15416 -21.16063 -5.50808 -3.90785 30.38181 95.67284 8.59867 1.75925 -22.60927 7.04579 -0.69271 32.73827 -105.52567 15.87831 -2.06907 28.24952 -3.88032 -9.97351 -20.02967 -5.9497 -2.67064 -3.49844 32.10079 5.44617 8.48719 -24.33789 -6.2998 1.502 2.96355
0.0037 0.00107 0.00535 -176.38913 -31.219 1.63348 45.05986 -1.5692 -9.24134 -12.68219 7.45202 -1.1564 -21.26264 -5.5355 -4.00304 30.48654 95.62574 8.57173 1.73333 -22.58446 7.04461 -0.73997 32.71992 -105.69048 15.83164 -2.13185 28.37269 -3.91565 -9.85745 -20.02495 -5.96094 -2.69277 -3.50971 32.25082 5.44225 8.68117 -24.32857 -6.32223 1.4577 2.94551
0.00421 0.0012 0.0055 -176.21726 -31.31568 1.70162 44.98078 -1.48278 -9.21255 -12.35595 7.12464 -1.15853 -21.35722 -5.56645 -4.0751 30.58509 95.56721 8.54374 1.71014 -22.56793 7.07905 -0.8871 32.72412 -105.34114 15.61227 -2.10958 28.49307 -3.95295 -9.76794 -20.02053 -5.97067 -2.71011 -3.51907 32.39662 5.44016 8.87319 -24.32028 -6.34273 1.41493 2.92796
